<mxfile host="65bd71144e">
    <diagram id="wXBKooOv0GcpBd2YHlwC" name="Page-1">
        <mxGraphModel dx="806" dy="670" grid="1" gridSize="10" guides="1" tooltips="1" connect="1" arrows="1" fold="1" page="1" pageScale="1" pageWidth="1169" pageHeight="827" math="0" shadow="0">
            <root>
                <mxCell id="0"/>
                <mxCell id="1" parent="0"/>
                <mxCell id="32" value="" style="edgeStyle=none;html=1;entryX=0;entryY=0.5;entryDx=0;entryDy=0;" edge="1" parent="1" source="27">
                    <mxGeometry relative="1" as="geometry">
                        <mxPoint x="100" y="275" as="targetPoint"/>
                    </mxGeometry>
                </mxCell>
                <mxCell id="66" value="" style="group" vertex="1" connectable="0" parent="1">
                    <mxGeometry x="320" y="298" width="240" height="170" as="geometry"/>
                </mxCell>
                <mxCell id="64" value="" style="rounded=0;whiteSpace=wrap;html=1;" vertex="1" parent="66">
                    <mxGeometry x="5" width="230" height="154" as="geometry"/>
                </mxCell>
                <mxCell id="52" value="" style="group" vertex="1" connectable="0" parent="66">
                    <mxGeometry width="240" height="170" as="geometry"/>
                </mxCell>
                <mxCell id="50" value="D" style="group" vertex="1" connectable="0" parent="52">
                    <mxGeometry x="19.200000000000003" y="11" width="201.60000000000002" height="129.00000000000006" as="geometry"/>
                </mxCell>
                <mxCell id="47" value="" style="shape=parallelogram;perimeter=parallelogramPerimeter;whiteSpace=wrap;html=1;fixedSize=1;" vertex="1" parent="50">
                    <mxGeometry y="62.27586206896551" width="201.6" height="66.72413793103448" as="geometry"/>
                </mxCell>
                <mxCell id="48" value="" style="shape=parallelogram;perimeter=parallelogramPerimeter;whiteSpace=wrap;html=1;fixedSize=1;" vertex="1" parent="50">
                    <mxGeometry y="33.36206896551724" width="201.6" height="66.72413793103448" as="geometry"/>
                </mxCell>
                <mxCell id="49" value="" style="shape=parallelogram;perimeter=parallelogramPerimeter;whiteSpace=wrap;html=1;fixedSize=1;" vertex="1" parent="50">
                    <mxGeometry width="201.6" height="66.72413793103448" as="geometry"/>
                </mxCell>
                <mxCell id="56" value="Story" style="text;html=1;strokeColor=none;fillColor=none;align=center;verticalAlign=middle;whiteSpace=wrap;rounded=0;" vertex="1" parent="50">
                    <mxGeometry x="19.200000000000003" y="80.09000000000003" width="38.400000000000006" height="20" as="geometry"/>
                </mxCell>
                <mxCell id="57" value="Assets" style="text;html=1;strokeColor=none;fillColor=none;align=center;verticalAlign=middle;whiteSpace=wrap;rounded=0;" vertex="1" parent="50">
                    <mxGeometry x="19.200000000000003" y="109.00000000000006" width="38.400000000000006" height="20" as="geometry"/>
                </mxCell>
                <mxCell id="53" value="Design" style="text;html=1;strokeColor=none;fillColor=none;align=center;verticalAlign=middle;whiteSpace=wrap;rounded=0;" vertex="1" parent="50">
                    <mxGeometry x="19.200000000000003" y="46.72000000000003" width="38.400000000000006" height="20" as="geometry"/>
                </mxCell>
                <mxCell id="69" value="Shooting" style="rounded=0;whiteSpace=wrap;html=1;fontSize=24;" vertex="1" parent="1">
                    <mxGeometry x="680" y="298" width="230" height="154" as="geometry"/>
                </mxCell>
                <mxCell id="70" value="" style="edgeStyle=none;html=1;" edge="1" parent="1" source="64" target="69">
                    <mxGeometry relative="1" as="geometry"/>
                </mxCell>
                <mxCell id="85" style="edgeStyle=none;html=1;entryX=0;entryY=0.5;entryDx=0;entryDy=0;exitX=1;exitY=0.5;exitDx=0;exitDy=0;" edge="1" parent="1" source="69" target="74">
                    <mxGeometry relative="1" as="geometry">
                        <mxPoint x="990" y="375" as="sourcePoint"/>
                    </mxGeometry>
                </mxCell>
                <mxCell id="73" value="" style="group" vertex="1" connectable="0" parent="1">
                    <mxGeometry x="1040" y="298" width="240" height="170" as="geometry"/>
                </mxCell>
                <mxCell id="74" value="" style="rounded=0;whiteSpace=wrap;html=1;" vertex="1" parent="73">
                    <mxGeometry x="5" width="230" height="154" as="geometry"/>
                </mxCell>
                <mxCell id="75" value="" style="group" vertex="1" connectable="0" parent="73">
                    <mxGeometry width="240" height="170" as="geometry"/>
                </mxCell>
                <mxCell id="76" value="D" style="group" vertex="1" connectable="0" parent="75">
                    <mxGeometry x="19.200000000000003" y="11" width="201.60000000000002" height="129.00000000000006" as="geometry"/>
                </mxCell>
                <mxCell id="77" value="" style="shape=parallelogram;perimeter=parallelogramPerimeter;whiteSpace=wrap;html=1;fixedSize=1;" vertex="1" parent="76">
                    <mxGeometry y="62.27586206896551" width="201.6" height="66.72413793103448" as="geometry"/>
                </mxCell>
                <mxCell id="78" value="" style="shape=parallelogram;perimeter=parallelogramPerimeter;whiteSpace=wrap;html=1;fixedSize=1;" vertex="1" parent="76">
                    <mxGeometry y="33.36206896551724" width="201.6" height="66.72413793103448" as="geometry"/>
                </mxCell>
                <mxCell id="79" value="" style="shape=parallelogram;perimeter=parallelogramPerimeter;whiteSpace=wrap;html=1;fixedSize=1;" vertex="1" parent="76">
                    <mxGeometry width="201.6" height="66.72413793103448" as="geometry"/>
                </mxCell>
                <mxCell id="80" value="Compositing" style="text;html=1;strokeColor=none;fillColor=none;align=center;verticalAlign=middle;whiteSpace=wrap;rounded=0;" vertex="1" parent="76">
                    <mxGeometry x="11.800000000000002" y="80.09" width="87.6" height="20" as="geometry"/>
                </mxCell>
                <mxCell id="81" value="Post processing" style="text;html=1;strokeColor=none;fillColor=none;align=center;verticalAlign=middle;whiteSpace=wrap;rounded=0;" vertex="1" parent="76">
                    <mxGeometry x="19.2" y="109" width="90.8" height="20" as="geometry"/>
                </mxCell>
                <mxCell id="82" value="Scene selection" style="text;html=1;strokeColor=none;fillColor=none;align=center;verticalAlign=middle;whiteSpace=wrap;rounded=0;" vertex="1" parent="76">
                    <mxGeometry x="19.2" y="46.72" width="90.8" height="20" as="geometry"/>
                </mxCell>
                <mxCell id="90" style="edgeStyle=none;html=1;entryX=0;entryY=0.5;entryDx=0;entryDy=0;" edge="1" parent="1" source="87" target="64">
                    <mxGeometry relative="1" as="geometry"/>
                </mxCell>
                <mxCell id="87" value="Movie idea" style="ellipse;whiteSpace=wrap;html=1;aspect=fixed;fillColor=#ffe6cc;strokeColor=#d79b00;" vertex="1" parent="1">
                    <mxGeometry x="120" y="335" width="80" height="80" as="geometry"/>
                </mxCell>
                <mxCell id="91" value="Movie made" style="ellipse;whiteSpace=wrap;html=1;aspect=fixed;fillColor=#f8cecc;strokeColor=#b85450;" vertex="1" parent="1">
                    <mxGeometry x="1400" y="335" width="80" height="80" as="geometry"/>
                </mxCell>
                <mxCell id="92" style="edgeStyle=none;html=1;" edge="1" parent="1" source="74" target="91">
                    <mxGeometry relative="1" as="geometry"/>
                </mxCell>
            </root>
        </mxGraphModel>
    </diagram>
</mxfile>